<svg id="my-svg" width="100%" xmlns="http://www.w3.org/2000/svg" xmlns:xlink="http://www.w3.org/1999/xlink" class="flowchart" style="max-width: 1863.39px; background-color: white;" viewBox="0 0 1863.38671875 528" role="graphics-document document" aria-roledescription="flowchart-v2"><style>#my-svg{font-family:"trebuchet ms",verdana,arial,sans-serif;font-size:16px;fill:#333;}@keyframes edge-animation-frame{from{stroke-dashoffset:0;}}@keyframes dash{to{stroke-dashoffset:0;}}#my-svg .edge-animation-slow{stroke-dasharray:9,5!important;stroke-dashoffset:900;animation:dash 50s linear infinite;stroke-linecap:round;}#my-svg .edge-animation-fast{stroke-dasharray:9,5!important;stroke-dashoffset:900;animation:dash 20s linear infinite;stroke-linecap:round;}#my-svg .error-icon{fill:#552222;}#my-svg .error-text{fill:#552222;stroke:#552222;}#my-svg .edge-thickness-normal{stroke-width:1px;}#my-svg .edge-thickness-thick{stroke-width:3.5px;}#my-svg .edge-pattern-solid{stroke-dasharray:0;}#my-svg .edge-thickness-invisible{stroke-width:0;fill:none;}#my-svg .edge-pattern-dashed{stroke-dasharray:3;}#my-svg .edge-pattern-dotted{stroke-dasharray:2;}#my-svg .marker{fill:#333333;stroke:#333333;}#my-svg .marker.cross{stroke:#333333;}#my-svg svg{font-family:"trebuchet ms",verdana,arial,sans-serif;font-size:16px;}#my-svg p{margin:0;}#my-svg .label{font-family:"trebuchet ms",verdana,arial,sans-serif;color:#333;}#my-svg .cluster-label text{fill:#333;}#my-svg .cluster-label span{color:#333;}#my-svg .cluster-label span p{background-color:transparent;}#my-svg .label text,#my-svg span{fill:#333;color:#333;}#my-svg .node rect,#my-svg .node circle,#my-svg .node ellipse,#my-svg .node polygon,#my-svg .node path{fill:#ECECFF;stroke:#9370DB;stroke-width:1px;}#my-svg .rough-node .label text,#my-svg .node .label text,#my-svg .image-shape .label,#my-svg .icon-shape .label{text-anchor:middle;}#my-svg .node .katex path{fill:#000;stroke:#000;stroke-width:1px;}#my-svg .rough-node .label,#my-svg .node .label,#my-svg .image-shape .label,#my-svg .icon-shape .label{text-align:center;}#my-svg .node.clickable{cursor:pointer;}#my-svg .root .anchor path{fill:#333333!important;stroke-width:0;stroke:#333333;}#my-svg .arrowheadPath{fill:#333333;}#my-svg .edgePath .path{stroke:#333333;stroke-width:2.0px;}#my-svg .flowchart-link{stroke:#333333;fill:none;}#my-svg .edgeLabel{background-color:rgba(232,232,232, 0.8);text-align:center;}#my-svg .edgeLabel p{background-color:rgba(232,232,232, 0.8);}#my-svg .edgeLabel rect{opacity:0.5;background-color:rgba(232,232,232, 0.8);fill:rgba(232,232,232, 0.8);}#my-svg .labelBkg{background-color:rgba(232, 232, 232, 0.5);}#my-svg .cluster rect{fill:#ffffde;stroke:#aaaa33;stroke-width:1px;}#my-svg .cluster text{fill:#333;}#my-svg .cluster span{color:#333;}#my-svg div.mermaidTooltip{position:absolute;text-align:center;max-width:200px;padding:2px;font-family:"trebuchet ms",verdana,arial,sans-serif;font-size:12px;background:hsl(80, 100%, 96.2745098039%);border:1px solid #aaaa33;border-radius:2px;pointer-events:none;z-index:100;}#my-svg .flowchartTitleText{text-anchor:middle;font-size:18px;fill:#333;}#my-svg rect.text{fill:none;stroke-width:0;}#my-svg .icon-shape,#my-svg .image-shape{background-color:rgba(232,232,232, 0.8);text-align:center;}#my-svg .icon-shape p,#my-svg .image-shape p{background-color:rgba(232,232,232, 0.8);padding:2px;}#my-svg .icon-shape rect,#my-svg .image-shape rect{opacity:0.5;background-color:rgba(232,232,232, 0.8);fill:rgba(232,232,232, 0.8);}#my-svg .label-icon{display:inline-block;height:1em;overflow:visible;vertical-align:-0.125em;}#my-svg .node .label-icon path{fill:currentColor;stroke:revert;stroke-width:revert;}#my-svg :root{--mermaid-font-family:"trebuchet ms",verdana,arial,sans-serif;}</style><g><marker id="my-svg_flowchart-v2-pointEnd" class="marker flowchart-v2" viewBox="0 0 10 10" refX="5" refY="5" markerUnits="userSpaceOnUse" markerWidth="8" markerHeight="8" orient="auto"><path d="M 0 0 L 10 5 L 0 10 z" class="arrowMarkerPath" style="stroke-width: 1; stroke-dasharray: 1, 0;"/></marker><marker id="my-svg_flowchart-v2-pointStart" class="marker flowchart-v2" viewBox="0 0 10 10" refX="4.5" refY="5" markerUnits="userSpaceOnUse" markerWidth="8" markerHeight="8" orient="auto"><path d="M 0 5 L 10 10 L 10 0 z" class="arrowMarkerPath" style="stroke-width: 1; stroke-dasharray: 1, 0;"/></marker><marker id="my-svg_flowchart-v2-circleEnd" class="marker flowchart-v2" viewBox="0 0 10 10" refX="11" refY="5" markerUnits="userSpaceOnUse" markerWidth="11" markerHeight="11" orient="auto"><circle cx="5" cy="5" r="5" class="arrowMarkerPath" style="stroke-width: 1; stroke-dasharray: 1, 0;"/></marker><marker id="my-svg_flowchart-v2-circleStart" class="marker flowchart-v2" viewBox="0 0 10 10" refX="-1" refY="5" markerUnits="userSpaceOnUse" markerWidth="11" markerHeight="11" orient="auto"><circle cx="5" cy="5" r="5" class="arrowMarkerPath" style="stroke-width: 1; stroke-dasharray: 1, 0;"/></marker><marker id="my-svg_flowchart-v2-crossEnd" class="marker cross flowchart-v2" viewBox="0 0 11 11" refX="12" refY="5.2" markerUnits="userSpaceOnUse" markerWidth="11" markerHeight="11" orient="auto"><path d="M 1,1 l 9,9 M 10,1 l -9,9" class="arrowMarkerPath" style="stroke-width: 2; stroke-dasharray: 1, 0;"/></marker><marker id="my-svg_flowchart-v2-crossStart" class="marker cross flowchart-v2" viewBox="0 0 11 11" refX="-1" refY="5.2" markerUnits="userSpaceOnUse" markerWidth="11" markerHeight="11" orient="auto"><path d="M 1,1 l 9,9 M 10,1 l -9,9" class="arrowMarkerPath" style="stroke-width: 2; stroke-dasharray: 1, 0;"/></marker><g class="root"><g class="clusters"><g class="cluster" id="Repository" data-look="classic"><rect style="" x="36.05859375" y="416" width="1320.4609375" height="104"/><g class="cluster-label" transform="translate(658.046875, 416)"><foreignObject width="76.484375" height="24"><div xmlns="http://www.w3.org/1999/xhtml" style="display: table-cell; white-space: nowrap; line-height: 1.5; max-width: 200px; text-align: center;"><span class="nodeLabel"><p>Repository</p></span></div></foreignObject></g></g><g class="cluster" id="Logic" data-look="classic"><rect style="" x="8" y="212" width="1682.12890625" height="154"/><g class="cluster-label" transform="translate(829.939453125, 212)"><foreignObject width="38.25" height="24"><div xmlns="http://www.w3.org/1999/xhtml" style="display: table-cell; white-space: nowrap; line-height: 1.5; max-width: 200px; text-align: center;"><span class="nodeLabel"><p>Logic</p></span></div></foreignObject></g></g><g class="cluster" id="Handlers" data-look="classic"><rect style="" x="8" y="8" width="1682.12890625" height="154"/><g class="cluster-label" transform="translate(817.048828125, 8)"><foreignObject width="64.03125" height="24"><div xmlns="http://www.w3.org/1999/xhtml" style="display: table-cell; white-space: nowrap; line-height: 1.5; max-width: 200px; text-align: center;"><span class="nodeLabel"><p>Handlers</p></span></div></foreignObject></g></g><g class="cluster" id="Repo" data-look="classic"><rect style="" x="1230.83203125" y="237" width="439.296875" height="104"/><g class="cluster-label" transform="translate(1431.35546875, 237)"><foreignObject width="38.25" height="24"><div xmlns="http://www.w3.org/1999/xhtml" style="display: table-cell; white-space: nowrap; line-height: 1.5; max-width: 200px; text-align: center;"><span class="nodeLabel"><p>Repo</p></span></div></foreignObject></g></g><g class="cluster" id="User" data-look="classic"><rect style="" x="28" y="237" width="1138.26171875" height="104"/><g class="cluster-label" transform="translate(580.240234375, 237)"><foreignObject width="33.78125" height="24"><div xmlns="http://www.w3.org/1999/xhtml" style="display: table-cell; white-space: nowrap; line-height: 1.5; max-width: 200px; text-align: center;"><span class="nodeLabel"><p>User</p></span></div></foreignObject></g></g><g class="cluster" id="POST" data-look="classic"><rect style="" x="1133.4453125" y="33" width="536.68359375" height="104"/><g class="cluster-label" transform="translate(1380.005859375, 33)"><foreignObject width="43.5625" height="24"><div xmlns="http://www.w3.org/1999/xhtml" style="display: table-cell; white-space: nowrap; line-height: 1.5; max-width: 200px; text-align: center;"><span class="nodeLabel"><p>POST</p></span></div></foreignObject></g></g><g class="cluster" id="GET" data-look="classic"><rect style="" x="28" y="33" width="1085.4453125" height="104"/><g class="cluster-label" transform="translate(554.27734375, 33)"><foreignObject width="32.890625" height="24"><div xmlns="http://www.w3.org/1999/xhtml" style="display: table-cell; white-space: nowrap; line-height: 1.5; max-width: 200px; text-align: center;"><span class="nodeLabel"><p>GET</p></span></div></foreignObject></g></g></g><g class="edgePaths"><path d="M1787.145,112L1787.145,116.167C1787.145,120.333,1787.145,128.667,1787.145,137C1787.145,145.333,1787.145,153.667,1787.145,162C1787.145,170.333,1787.145,178.667,1787.145,187C1787.145,195.333,1787.145,203.667,1787.145,212C1787.145,220.333,1787.145,228.667,1787.145,236.333C1787.145,244,1787.145,251,1787.145,254.5L1787.145,258" id="L_A_B_0" class="edge-thickness-normal edge-pattern-solid edge-thickness-normal edge-pattern-solid flowchart-link" style=";" data-edge="true" data-et="edge" data-id="L_A_B_0" data-points="W3sieCI6MTc4Ny4xNDQ1MzEyNSwieSI6MTEyfSx7IngiOjE3ODcuMTQ0NTMxMjUsInkiOjEzN30seyJ4IjoxNzg3LjE0NDUzMTI1LCJ5IjoxNjJ9LHsieCI6MTc4Ny4xNDQ1MzEyNSwieSI6MTg3fSx7IngiOjE3ODcuMTQ0NTMxMjUsInkiOjIxMn0seyJ4IjoxNzg3LjE0NDUzMTI1LCJ5IjoyMzd9LHsieCI6MTc4Ny4xNDQ1MzEyNSwieSI6MjYyfV0=" marker-end="url(#my-svg_flowchart-v2-pointEnd)"/><path d="M1787.145,316L1787.145,320.167C1787.145,324.333,1787.145,332.667,1787.145,341C1787.145,349.333,1787.145,357.667,1787.145,366C1787.145,374.333,1787.145,382.667,1787.145,391C1787.145,399.333,1787.145,407.667,1787.145,415.333C1787.145,423,1787.145,430,1787.145,433.5L1787.145,437" id="L_B_C_0" class="edge-thickness-normal edge-pattern-solid edge-thickness-normal edge-pattern-solid flowchart-link" style=";" data-edge="true" data-et="edge" data-id="L_B_C_0" data-points="W3sieCI6MTc4Ny4xNDQ1MzEyNSwieSI6MzE2fSx7IngiOjE3ODcuMTQ0NTMxMjUsInkiOjM0MX0seyJ4IjoxNzg3LjE0NDUzMTI1LCJ5IjozNjZ9LHsieCI6MTc4Ny4xNDQ1MzEyNSwieSI6MzkxfSx7IngiOjE3ODcuMTQ0NTMxMjUsInkiOjQxNn0seyJ4IjoxNzg3LjE0NDUzMTI1LCJ5Ijo0NDF9XQ==" marker-end="url(#my-svg_flowchart-v2-pointEnd)"/><path d="M725.258,112L725.258,116.167C725.258,120.333,725.258,128.667,778.365,137C831.473,145.333,937.688,153.667,990.795,162C1043.902,170.333,1043.902,178.667,1043.902,187C1043.902,195.333,1043.902,203.667,1043.902,212C1043.902,220.333,1043.902,228.667,1043.902,236.333C1043.902,244,1043.902,251,1043.902,254.5L1043.902,258" id="L_H4_S7_0" class="edge-thickness-normal edge-pattern-solid edge-thickness-normal edge-pattern-solid flowchart-link" style=";" data-edge="true" data-et="edge" data-id="L_H4_S7_0" data-points="W3sieCI6NzI1LjI1NzgxMjUsInkiOjExMn0seyJ4Ijo3MjUuMjU3ODEyNSwieSI6MTM3fSx7IngiOjEwNDMuOTAyMzQzNzUsInkiOjE2Mn0seyJ4IjoxMDQzLjkwMjM0Mzc1LCJ5IjoxODd9LHsieCI6MTA0My45MDIzNDM3NSwieSI6MjEyfSx7IngiOjEwNDMuOTAyMzQzNzUsInkiOjIzN30seyJ4IjoxMDQzLjkwMjM0Mzc1LCJ5IjoyNjJ9XQ==" marker-end="url(#my-svg_flowchart-v2-pointEnd)"/><path d="M1043.902,316L1043.902,320.167C1043.902,324.333,1043.902,332.667,1075.759,341C1107.616,349.333,1171.329,357.667,1203.186,366C1235.043,374.333,1235.043,382.667,1235.043,391C1235.043,399.333,1235.043,407.667,1233.68,415.378C1232.316,423.089,1229.59,430.178,1228.227,433.722L1226.864,437.267" id="L_S7_R3_0" class="edge-thickness-normal edge-pattern-solid edge-thickness-normal edge-pattern-solid flowchart-link" style=";" data-edge="true" data-et="edge" data-id="L_S7_R3_0" data-points="W3sieCI6MTA0My45MDIzNDM3NSwieSI6MzE2fSx7IngiOjEwNDMuOTAyMzQzNzUsInkiOjM0MX0seyJ4IjoxMjM1LjA0Mjk2ODc1LCJ5IjozNjZ9LHsieCI6MTIzNS4wNDI5Njg3NSwieSI6MzkxfSx7IngiOjEyMzUuMDQyOTY4NzUsInkiOjQxNn0seyJ4IjoxMjI1LjQyNzU4NDEzNDYxNTUsInkiOjQ0MX1d" marker-end="url(#my-svg_flowchart-v2-pointEnd)"/><path d="M528.988,112L528.988,116.167C528.988,120.333,528.988,128.667,571.242,137C613.495,145.333,698.001,153.667,740.255,162C782.508,170.333,782.508,178.667,782.508,187C782.508,195.333,782.508,203.667,782.508,212C782.508,220.333,782.508,228.667,782.508,236.333C782.508,244,782.508,251,782.508,254.5L782.508,258" id="L_H1_S1_0" class="edge-thickness-normal edge-pattern-solid edge-thickness-normal edge-pattern-solid flowchart-link" style=";" data-edge="true" data-et="edge" data-id="L_H1_S1_0" data-points="W3sieCI6NTI4Ljk4ODI4MTI1LCJ5IjoxMTJ9LHsieCI6NTI4Ljk4ODI4MTI1LCJ5IjoxMzd9LHsieCI6NzgyLjUwNzgxMjUsInkiOjE2Mn0seyJ4Ijo3ODIuNTA3ODEyNSwieSI6MTg3fSx7IngiOjc4Mi41MDc4MTI1LCJ5IjoyMTJ9LHsieCI6NzgyLjUwNzgxMjUsInkiOjIzN30seyJ4Ijo3ODIuNTA3ODEyNSwieSI6MjYyfV0=" marker-end="url(#my-svg_flowchart-v2-pointEnd)"/><path d="M1227.352,112L1227.352,116.167C1227.352,120.333,1227.352,128.667,1118.793,137C1010.234,145.333,793.117,153.667,684.559,162C576,170.333,576,178.667,576,187C576,195.333,576,203.667,576,212C576,220.333,576,228.667,576,236.333C576,244,576,251,576,254.5L576,258" id="L_H2_S2_0" class="edge-thickness-normal edge-pattern-solid edge-thickness-normal edge-pattern-solid flowchart-link" style=";" data-edge="true" data-et="edge" data-id="L_H2_S2_0" data-points="W3sieCI6MTIyNy4zNTE1NjI1LCJ5IjoxMTJ9LHsieCI6MTIyNy4zNTE1NjI1LCJ5IjoxMzd9LHsieCI6NTc2LCJ5IjoxNjJ9LHsieCI6NTc2LCJ5IjoxODd9LHsieCI6NTc2LCJ5IjoyMTJ9LHsieCI6NTc2LCJ5IjoyMzd9LHsieCI6NTc2LCJ5IjoyNjJ9XQ==" marker-end="url(#my-svg_flowchart-v2-pointEnd)"/><path d="M710.703,299.942L665.796,306.785C620.889,313.628,531.076,327.314,486.169,338.324C441.262,349.333,441.262,357.667,441.262,366C441.262,374.333,441.262,382.667,441.262,391C441.262,399.333,441.262,407.667,408.595,417.792C375.928,427.918,310.593,439.835,277.926,445.794L245.259,451.753" id="L_S1_R1_0" class="edge-thickness-normal edge-pattern-solid edge-thickness-normal edge-pattern-solid flowchart-link" style=";" data-edge="true" data-et="edge" data-id="L_S1_R1_0" data-points="W3sieCI6NzEwLjcwMzEyNSwieSI6Mjk5Ljk0MTc5MTkxNjExNjI0fSx7IngiOjQ0MS4yNjE3MTg3NSwieSI6MzQxfSx7IngiOjQ0MS4yNjE3MTg3NSwieSI6MzY2fSx7IngiOjQ0MS4yNjE3MTg3NSwieSI6MzkxfSx7IngiOjQ0MS4yNjE3MTg3NSwieSI6NDE2fSx7IngiOjI0MS4zMjQyMTg3NSwieSI6NDUyLjQ3MDgyNjgyNDUyMjV9XQ==" marker-end="url(#my-svg_flowchart-v2-pointEnd)"/><path d="M848.353,316L858.514,320.167C868.675,324.333,888.998,332.667,899.159,341C909.32,349.333,909.32,357.667,909.32,366C909.32,374.333,909.32,382.667,909.32,391C909.32,399.333,909.32,407.667,900.569,415.729C891.818,423.791,874.317,431.582,865.566,435.478L856.815,439.373" id="L_S1_R2_0" class="edge-thickness-normal edge-pattern-solid edge-thickness-normal edge-pattern-solid flowchart-link" style=";" data-edge="true" data-et="edge" data-id="L_S1_R2_0" data-points="W3sieCI6ODQ4LjM1Mjc2NDQyMzA3NjksInkiOjMxNn0seyJ4Ijo5MDkuMzIwMzEyNSwieSI6MzQxfSx7IngiOjkwOS4zMjAzMTI1LCJ5IjozNjZ9LHsieCI6OTA5LjMyMDMxMjUsInkiOjM5MX0seyJ4Ijo5MDkuMzIwMzEyNSwieSI6NDE2fSx7IngiOjg1My4xNjA0NTY3MzA3NjkzLCJ5Ijo0NDF9XQ==" marker-end="url(#my-svg_flowchart-v2-pointEnd)"/><path d="M491.297,306.761L464.082,312.467C436.867,318.174,382.438,329.587,355.223,339.46C328.008,349.333,328.008,357.667,328.008,366C328.008,374.333,328.008,382.667,328.008,391C328.008,399.333,328.008,407.667,314.199,416.013C300.389,424.359,272.771,432.717,258.962,436.897L245.153,441.076" id="L_S2_R1_0" class="edge-thickness-normal edge-pattern-solid edge-thickness-normal edge-pattern-solid flowchart-link" style=";" data-edge="true" data-et="edge" data-id="L_S2_R1_0" data-points="W3sieCI6NDkxLjI5Njg3NSwieSI6MzA2Ljc2MDg5MjE2NTIwMTc3fSx7IngiOjMyOC4wMDc4MTI1LCJ5IjozNDF9LHsieCI6MzI4LjAwNzgxMjUsInkiOjM2Nn0seyJ4IjozMjguMDA3ODEyNSwieSI6MzkxfSx7IngiOjMyOC4wMDc4MTI1LCJ5Ijo0MTZ9LHsieCI6MjQxLjMyNDIxODc1LCJ5Ijo0NDIuMjM0NjcwOTEwNTM3NjZ9XQ==" marker-end="url(#my-svg_flowchart-v2-pointEnd)"/><path d="M660.703,309.015L683.264,314.346C705.824,319.676,750.945,330.338,773.506,339.836C796.066,349.333,796.066,357.667,796.066,366C796.066,374.333,796.066,382.667,796.066,391C796.066,399.333,796.066,407.667,795.827,415.335C795.587,423.003,795.108,430.006,794.868,433.508L794.629,437.009" id="L_S2_R2_0" class="edge-thickness-normal edge-pattern-solid edge-thickness-normal edge-pattern-solid flowchart-link" style=";" data-edge="true" data-et="edge" data-id="L_S2_R2_0" data-points="W3sieCI6NjYwLjcwMzEyNSwieSI6MzA5LjAxNDY5NzI2ODIyNTF9LHsieCI6Nzk2LjA2NjQwNjI1LCJ5IjozNDF9LHsieCI6Nzk2LjA2NjQwNjI1LCJ5IjozNjZ9LHsieCI6Nzk2LjA2NjQwNjI1LCJ5IjozOTF9LHsieCI6Nzk2LjA2NjQwNjI1LCJ5Ijo0MTZ9LHsieCI6Nzk0LjM1NTU0Mzg3MDE5MjMsInkiOjQ0MX1d" marker-end="url(#my-svg_flowchart-v2-pointEnd)"/><path d="M104.117,112L104.117,116.167C104.117,120.333,104.117,128.667,104.117,137C104.117,145.333,104.117,153.667,104.117,162C104.117,170.333,104.117,178.667,104.117,187C104.117,195.333,104.117,203.667,104.117,212C104.117,220.333,104.117,228.667,104.117,236.333C104.117,244,104.117,251,104.117,254.5L104.117,258" id="L_H6_S6_0" class="edge-thickness-normal edge-pattern-solid edge-thickness-normal edge-pattern-solid flowchart-link" style=";" data-edge="true" data-et="edge" data-id="L_H6_S6_0" data-points="W3sieCI6MTA0LjExNzE4NzUsInkiOjExMn0seyJ4IjoxMDQuMTE3MTg3NSwieSI6MTM3fSx7IngiOjEwNC4xMTcxODc1LCJ5IjoxNjJ9LHsieCI6MTA0LjExNzE4NzUsInkiOjE4N30seyJ4IjoxMDQuMTE3MTg3NSwieSI6MjEyfSx7IngiOjEwNC4xMTcxODc1LCJ5IjoyMzd9LHsieCI6MTA0LjExNzE4NzUsInkiOjI2Mn1d" marker-end="url(#my-svg_flowchart-v2-pointEnd)"/><path d="M254.141,112L254.141,116.167C254.141,120.333,254.141,128.667,254.141,137C254.141,145.333,254.141,153.667,254.141,162C254.141,170.333,254.141,178.667,254.141,187C254.141,195.333,254.141,203.667,254.141,212C254.141,220.333,254.141,228.667,254.141,236.333C254.141,244,254.141,251,254.141,254.5L254.141,258" id="L_H3_S5_0" class="edge-thickness-normal edge-pattern-solid edge-thickness-normal edge-pattern-solid flowchart-link" style=";" data-edge="true" data-et="edge" data-id="L_H3_S5_0" data-points="W3sieCI6MjU0LjE0MDYyNSwieSI6MTEyfSx7IngiOjI1NC4xNDA2MjUsInkiOjEzN30seyJ4IjoyNTQuMTQwNjI1LCJ5IjoxNjJ9LHsieCI6MjU0LjE0MDYyNSwieSI6MTg3fSx7IngiOjI1NC4xNDA2MjUsInkiOjIxMn0seyJ4IjoyNTQuMTQwNjI1LCJ5IjoyMzd9LHsieCI6MjU0LjE0MDYyNSwieSI6MjYyfV0=" marker-end="url(#my-svg_flowchart-v2-pointEnd)"/><path d="M220.385,316L215.175,320.167C209.966,324.333,199.547,332.667,194.338,341C189.129,349.333,189.129,357.667,189.129,366C189.129,374.333,189.129,382.667,189.129,391C189.129,399.333,189.129,407.667,186.846,415.437C184.564,423.207,179.999,430.414,177.716,434.017L175.434,437.621" id="L_S5_R1_0" class="edge-thickness-normal edge-pattern-solid edge-thickness-normal edge-pattern-solid flowchart-link" style=";" data-edge="true" data-et="edge" data-id="L_S5_R1_0" data-points="W3sieCI6MjIwLjM4NDU0MDI2NDQyMzEsInkiOjMxNn0seyJ4IjoxODkuMTI4OTA2MjUsInkiOjM0MX0seyJ4IjoxODkuMTI4OTA2MjUsInkiOjM2Nn0seyJ4IjoxODkuMTI4OTA2MjUsInkiOjM5MX0seyJ4IjoxODkuMTI4OTA2MjUsInkiOjQxNn0seyJ4IjoxNzMuMjkzNTY5NzExNTM4NDUsInkiOjQ0MX1d" marker-end="url(#my-svg_flowchart-v2-pointEnd)"/><path d="M313.047,302.794L340.24,309.161C367.434,315.529,421.82,328.265,449.014,338.799C476.207,349.333,476.207,357.667,476.207,366C476.207,374.333,476.207,382.667,476.207,391C476.207,399.333,476.207,407.667,512.075,417.73C547.942,427.793,619.677,439.587,655.545,445.483L691.412,451.38" id="L_S5_R2_0" class="edge-thickness-normal edge-pattern-solid edge-thickness-normal edge-pattern-solid flowchart-link" style=";" data-edge="true" data-et="edge" data-id="L_S5_R2_0" data-points="W3sieCI6MzEzLjA0Njg3NSwieSI6MzAyLjc5MzczNDI3ODUyNzN9LHsieCI6NDc2LjIwNzAzMTI1LCJ5IjozNDF9LHsieCI6NDc2LjIwNzAzMTI1LCJ5IjozNjZ9LHsieCI6NDc2LjIwNzAzMTI1LCJ5IjozOTF9LHsieCI6NDc2LjIwNzAzMTI1LCJ5Ijo0MTZ9LHsieCI6Njk1LjM1OTM3NSwieSI6NDUyLjAyODc1MDMyNDE4MjF9XQ==" marker-end="url(#my-svg_flowchart-v2-pointEnd)"/><path d="M1586.895,112L1586.895,116.167C1586.895,120.333,1586.895,128.667,1586.895,137C1586.895,145.333,1586.895,153.667,1586.895,162C1586.895,170.333,1586.895,178.667,1586.895,187C1586.895,195.333,1586.895,203.667,1586.895,212C1586.895,220.333,1586.895,228.667,1586.895,236.333C1586.895,244,1586.895,251,1586.895,254.5L1586.895,258" id="L_H7_S3_0" class="edge-thickness-normal edge-pattern-solid edge-thickness-normal edge-pattern-solid flowchart-link" style=";" data-edge="true" data-et="edge" data-id="L_H7_S3_0" data-points="W3sieCI6MTU4Ni44OTQ1MzEyNSwieSI6MTEyfSx7IngiOjE1ODYuODk0NTMxMjUsInkiOjEzN30seyJ4IjoxNTg2Ljg5NDUzMTI1LCJ5IjoxNjJ9LHsieCI6MTU4Ni44OTQ1MzEyNSwieSI6MTg3fSx7IngiOjE1ODYuODk0NTMxMjUsInkiOjIxMn0seyJ4IjoxNTg2Ljg5NDUzMTI1LCJ5IjoyMzd9LHsieCI6MTU4Ni44OTQ1MzEyNSwieSI6MjYyfV0=" marker-end="url(#my-svg_flowchart-v2-pointEnd)"/><path d="M1035.102,112L1035.102,116.167C1035.102,120.333,1035.102,128.667,1080.781,137C1126.46,145.333,1217.818,153.667,1263.497,162C1309.176,170.333,1309.176,178.667,1309.176,187C1309.176,195.333,1309.176,203.667,1309.176,212C1309.176,220.333,1309.176,228.667,1309.176,236.333C1309.176,244,1309.176,251,1309.176,254.5L1309.176,258" id="L_H8_S4_0" class="edge-thickness-normal edge-pattern-solid edge-thickness-normal edge-pattern-solid flowchart-link" style=";" data-edge="true" data-et="edge" data-id="L_H8_S4_0" data-points="W3sieCI6MTAzNS4xMDE1NjI1LCJ5IjoxMTJ9LHsieCI6MTAzNS4xMDE1NjI1LCJ5IjoxMzd9LHsieCI6MTMwOS4xNzU3ODEyNSwieSI6MTYyfSx7IngiOjEzMDkuMTc1NzgxMjUsInkiOjE4N30seyJ4IjoxMzA5LjE3NTc4MTI1LCJ5IjoyMTJ9LHsieCI6MTMwOS4xNzU3ODEyNSwieSI6MjM3fSx7IngiOjEzMDkuMTc1NzgxMjUsInkiOjI2Mn1d" marker-end="url(#my-svg_flowchart-v2-pointEnd)"/><path d="M1586.895,316L1586.895,320.167C1586.895,324.333,1586.895,332.667,1524.919,341C1462.944,349.333,1338.993,357.667,1277.018,366C1215.043,374.333,1215.043,382.667,1215.043,391C1215.043,399.333,1215.043,407.667,1215.043,415.333C1215.043,423,1215.043,430,1215.043,433.5L1215.043,437" id="L_S3_R3_0" class="edge-thickness-normal edge-pattern-solid edge-thickness-normal edge-pattern-solid flowchart-link" style=";" data-edge="true" data-et="edge" data-id="L_S3_R3_0" data-points="W3sieCI6MTU4Ni44OTQ1MzEyNSwieSI6MzE2fSx7IngiOjE1ODYuODk0NTMxMjUsInkiOjM0MX0seyJ4IjoxMjE1LjA0Mjk2ODc1LCJ5IjozNjZ9LHsieCI6MTIxNS4wNDI5Njg3NSwieSI6MzkxfSx7IngiOjEyMTUuMDQyOTY4NzUsInkiOjQxNn0seyJ4IjoxMjE1LjA0Mjk2ODc1LCJ5Ijo0NDF9XQ==" marker-end="url(#my-svg_flowchart-v2-pointEnd)"/><path d="M1309.176,316L1309.176,320.167C1309.176,324.333,1309.176,332.667,1280.022,341C1250.868,349.333,1192.561,357.667,1163.408,366C1134.254,374.333,1134.254,382.667,1134.254,391C1134.254,399.333,1134.254,407.667,1140.167,415.639C1146.08,423.612,1157.906,431.223,1163.818,435.029L1169.731,438.835" id="L_S4_R3_0" class="edge-thickness-normal edge-pattern-solid edge-thickness-normal edge-pattern-solid flowchart-link" style=";" data-edge="true" data-et="edge" data-id="L_S4_R3_0" data-points="W3sieCI6MTMwOS4xNzU3ODEyNSwieSI6MzE2fSx7IngiOjEzMDkuMTc1NzgxMjUsInkiOjM0MX0seyJ4IjoxMTM0LjI1MzkwNjI1LCJ5IjozNjZ9LHsieCI6MTEzNC4yNTM5MDYyNSwieSI6MzkxfSx7IngiOjExMzQuMjUzOTA2MjUsInkiOjQxNn0seyJ4IjoxMTczLjA5NDgwMTY4MjY5MjQsInkiOjQ0MX1d" marker-end="url(#my-svg_flowchart-v2-pointEnd)"/><path d="M104.117,316L104.117,320.167C104.117,324.333,104.117,332.667,104.117,341C104.117,349.333,104.117,357.667,104.117,366C104.117,374.333,104.117,382.667,104.117,391C104.117,399.333,104.117,407.667,107.818,415.529C111.519,423.391,118.921,430.782,122.622,434.478L126.322,438.174" id="L_S6_R1_0" class="edge-thickness-normal edge-pattern-solid edge-thickness-normal edge-pattern-solid flowchart-link" style=";" data-edge="true" data-et="edge" data-id="L_S6_R1_0" data-points="W3sieCI6MTA0LjExNzE4NzUsInkiOjMxNn0seyJ4IjoxMDQuMTE3MTg3NSwieSI6MzQxfSx7IngiOjEwNC4xMTcxODc1LCJ5IjozNjZ9LHsieCI6MTA0LjExNzE4NzUsInkiOjM5MX0seyJ4IjoxMDQuMTE3MTg3NSwieSI6NDE2fSx7IngiOjEyOS4xNTI4Njk1OTEzNDYxNiwieSI6NDQxfV0=" marker-end="url(#my-svg_flowchart-v2-pointEnd)"/></g><g class="edgeLabels"><g class="edgeLabel"><g class="label" data-id="L_A_B_0" transform="translate(0, 0)"><foreignObject width="0" height="0"><div xmlns="http://www.w3.org/1999/xhtml" class="labelBkg" style="display: table-cell; white-space: nowrap; line-height: 1.5; max-width: 200px; text-align: center;"><span class="edgeLabel"></span></div></foreignObject></g></g><g class="edgeLabel"><g class="label" data-id="L_B_C_0" transform="translate(0, 0)"><foreignObject width="0" height="0"><div xmlns="http://www.w3.org/1999/xhtml" class="labelBkg" style="display: table-cell; white-space: nowrap; line-height: 1.5; max-width: 200px; text-align: center;"><span class="edgeLabel"></span></div></foreignObject></g></g><g class="edgeLabel"><g class="label" data-id="L_H4_S7_0" transform="translate(0, 0)"><foreignObject width="0" height="0"><div xmlns="http://www.w3.org/1999/xhtml" class="labelBkg" style="display: table-cell; white-space: nowrap; line-height: 1.5; max-width: 200px; text-align: center;"><span class="edgeLabel"></span></div></foreignObject></g></g><g class="edgeLabel"><g class="label" data-id="L_S7_R3_0" transform="translate(0, 0)"><foreignObject width="0" height="0"><div xmlns="http://www.w3.org/1999/xhtml" class="labelBkg" style="display: table-cell; white-space: nowrap; line-height: 1.5; max-width: 200px; text-align: center;"><span class="edgeLabel"></span></div></foreignObject></g></g><g class="edgeLabel"><g class="label" data-id="L_H1_S1_0" transform="translate(0, 0)"><foreignObject width="0" height="0"><div xmlns="http://www.w3.org/1999/xhtml" class="labelBkg" style="display: table-cell; white-space: nowrap; line-height: 1.5; max-width: 200px; text-align: center;"><span class="edgeLabel"></span></div></foreignObject></g></g><g class="edgeLabel"><g class="label" data-id="L_H2_S2_0" transform="translate(0, 0)"><foreignObject width="0" height="0"><div xmlns="http://www.w3.org/1999/xhtml" class="labelBkg" style="display: table-cell; white-space: nowrap; line-height: 1.5; max-width: 200px; text-align: center;"><span class="edgeLabel"></span></div></foreignObject></g></g><g class="edgeLabel"><g class="label" data-id="L_S1_R1_0" transform="translate(0, 0)"><foreignObject width="0" height="0"><div xmlns="http://www.w3.org/1999/xhtml" class="labelBkg" style="display: table-cell; white-space: nowrap; line-height: 1.5; max-width: 200px; text-align: center;"><span class="edgeLabel"></span></div></foreignObject></g></g><g class="edgeLabel"><g class="label" data-id="L_S1_R2_0" transform="translate(0, 0)"><foreignObject width="0" height="0"><div xmlns="http://www.w3.org/1999/xhtml" class="labelBkg" style="display: table-cell; white-space: nowrap; line-height: 1.5; max-width: 200px; text-align: center;"><span class="edgeLabel"></span></div></foreignObject></g></g><g class="edgeLabel"><g class="label" data-id="L_S2_R1_0" transform="translate(0, 0)"><foreignObject width="0" height="0"><div xmlns="http://www.w3.org/1999/xhtml" class="labelBkg" style="display: table-cell; white-space: nowrap; line-height: 1.5; max-width: 200px; text-align: center;"><span class="edgeLabel"></span></div></foreignObject></g></g><g class="edgeLabel"><g class="label" data-id="L_S2_R2_0" transform="translate(0, 0)"><foreignObject width="0" height="0"><div xmlns="http://www.w3.org/1999/xhtml" class="labelBkg" style="display: table-cell; white-space: nowrap; line-height: 1.5; max-width: 200px; text-align: center;"><span class="edgeLabel"></span></div></foreignObject></g></g><g class="edgeLabel"><g class="label" data-id="L_H6_S6_0" transform="translate(0, 0)"><foreignObject width="0" height="0"><div xmlns="http://www.w3.org/1999/xhtml" class="labelBkg" style="display: table-cell; white-space: nowrap; line-height: 1.5; max-width: 200px; text-align: center;"><span class="edgeLabel"></span></div></foreignObject></g></g><g class="edgeLabel"><g class="label" data-id="L_H3_S5_0" transform="translate(0, 0)"><foreignObject width="0" height="0"><div xmlns="http://www.w3.org/1999/xhtml" class="labelBkg" style="display: table-cell; white-space: nowrap; line-height: 1.5; max-width: 200px; text-align: center;"><span class="edgeLabel"></span></div></foreignObject></g></g><g class="edgeLabel"><g class="label" data-id="L_S5_R1_0" transform="translate(0, 0)"><foreignObject width="0" height="0"><div xmlns="http://www.w3.org/1999/xhtml" class="labelBkg" style="display: table-cell; white-space: nowrap; line-height: 1.5; max-width: 200px; text-align: center;"><span class="edgeLabel"></span></div></foreignObject></g></g><g class="edgeLabel"><g class="label" data-id="L_S5_R2_0" transform="translate(0, 0)"><foreignObject width="0" height="0"><div xmlns="http://www.w3.org/1999/xhtml" class="labelBkg" style="display: table-cell; white-space: nowrap; line-height: 1.5; max-width: 200px; text-align: center;"><span class="edgeLabel"></span></div></foreignObject></g></g><g class="edgeLabel"><g class="label" data-id="L_H7_S3_0" transform="translate(0, 0)"><foreignObject width="0" height="0"><div xmlns="http://www.w3.org/1999/xhtml" class="labelBkg" style="display: table-cell; white-space: nowrap; line-height: 1.5; max-width: 200px; text-align: center;"><span class="edgeLabel"></span></div></foreignObject></g></g><g class="edgeLabel"><g class="label" data-id="L_H8_S4_0" transform="translate(0, 0)"><foreignObject width="0" height="0"><div xmlns="http://www.w3.org/1999/xhtml" class="labelBkg" style="display: table-cell; white-space: nowrap; line-height: 1.5; max-width: 200px; text-align: center;"><span class="edgeLabel"></span></div></foreignObject></g></g><g class="edgeLabel"><g class="label" data-id="L_S3_R3_0" transform="translate(0, 0)"><foreignObject width="0" height="0"><div xmlns="http://www.w3.org/1999/xhtml" class="labelBkg" style="display: table-cell; white-space: nowrap; line-height: 1.5; max-width: 200px; text-align: center;"><span class="edgeLabel"></span></div></foreignObject></g></g><g class="edgeLabel"><g class="label" data-id="L_S4_R3_0" transform="translate(0, 0)"><foreignObject width="0" height="0"><div xmlns="http://www.w3.org/1999/xhtml" class="labelBkg" style="display: table-cell; white-space: nowrap; line-height: 1.5; max-width: 200px; text-align: center;"><span class="edgeLabel"></span></div></foreignObject></g></g><g class="edgeLabel"><g class="label" data-id="L_S6_R1_0" transform="translate(0, 0)"><foreignObject width="0" height="0"><div xmlns="http://www.w3.org/1999/xhtml" class="labelBkg" style="display: table-cell; white-space: nowrap; line-height: 1.5; max-width: 200px; text-align: center;"><span class="edgeLabel"></span></div></foreignObject></g></g></g><g class="nodes"><g class="node default" id="flowchart-A-0" transform="translate(1787.14453125, 85)"><rect class="basic label-container" style="" x="-62.015625" y="-27" width="124.03125" height="54"/><g class="label" style="" transform="translate(-32.015625, -12)"><rect/><foreignObject width="64.03125" height="24"><div xmlns="http://www.w3.org/1999/xhtml" style="display: table-cell; white-space: nowrap; line-height: 1.5; max-width: 200px; text-align: center;"><span class="nodeLabel"><p>Handlers</p></span></div></foreignObject></g></g><g class="node default" id="flowchart-B-1" transform="translate(1787.14453125, 289)"><rect class="basic label-container" style="" x="-49.125" y="-27" width="98.25" height="54"/><g class="label" style="" transform="translate(-19.125, -12)"><rect/><foreignObject width="38.25" height="24"><div xmlns="http://www.w3.org/1999/xhtml" style="display: table-cell; white-space: nowrap; line-height: 1.5; max-width: 200px; text-align: center;"><span class="nodeLabel"><p>Logic</p></span></div></foreignObject></g></g><g class="node default" id="flowchart-C-3" transform="translate(1787.14453125, 468)"><rect class="basic label-container" style="" x="-68.2421875" y="-27" width="136.484375" height="54"/><g class="label" style="" transform="translate(-38.2421875, -12)"><rect/><foreignObject width="76.484375" height="24"><div xmlns="http://www.w3.org/1999/xhtml" style="display: table-cell; white-space: nowrap; line-height: 1.5; max-width: 200px; text-align: center;"><span class="nodeLabel"><p>Repository</p></span></div></foreignObject></g></g><g class="node default" id="flowchart-H1-4" transform="translate(528.98828125, 85)"><rect class="basic label-container" style="" x="-58.90625" y="-27" width="117.8125" height="54"/><g class="label" style="" transform="translate(-28.90625, -12)"><rect/><foreignObject width="57.8125" height="24"><div xmlns="http://www.w3.org/1999/xhtml" style="display: table-cell; white-space: nowrap; line-height: 1.5; max-width: 200px; text-align: center;"><span class="nodeLabel"><p>Settings</p></span></div></foreignObject></g></g><g class="node default" id="flowchart-H6-5" transform="translate(104.1171875, 85)"><rect class="basic label-container" style="" x="-41.1171875" y="-27" width="82.234375" height="54"/><g class="label" style="" transform="translate(-11.1171875, -12)"><rect/><foreignObject width="22.234375" height="24"><div xmlns="http://www.w3.org/1999/xhtml" style="display: table-cell; white-space: nowrap; line-height: 1.5; max-width: 200px; text-align: center;"><span class="nodeLabel"><p>Me</p></span></div></foreignObject></g></g><g class="node default" id="flowchart-H3-6" transform="translate(254.140625, 85)"><rect class="basic label-container" style="" x="-40.671875" y="-27" width="81.34375" height="54"/><g class="label" style="" transform="translate(-10.671875, -12)"><rect/><foreignObject width="21.34375" height="24"><div xmlns="http://www.w3.org/1999/xhtml" style="display: table-cell; white-space: nowrap; line-height: 1.5; max-width: 200px; text-align: center;"><span class="nodeLabel"><p>Init</p></span></div></foreignObject></g></g><g class="node default" id="flowchart-H4-7" transform="translate(725.2578125, 85)"><rect class="basic label-container" style="" x="-74.46875" y="-27" width="148.9375" height="54"/><g class="label" style="" transform="translate(-44.46875, -12)"><rect/><foreignObject width="88.9375" height="24"><div xmlns="http://www.w3.org/1999/xhtml" style="display: table-cell; white-space: nowrap; line-height: 1.5; max-width: 200px; text-align: center;"><span class="nodeLabel"><p>Repositories</p></span></div></foreignObject></g></g><g class="node default" id="flowchart-H5-8" transform="translate(895.7421875, 85)"><rect class="basic label-container" style="" x="-46.015625" y="-27" width="92.03125" height="54"/><g class="label" style="" transform="translate(-16.015625, -12)"><rect/><foreignObject width="32.03125" height="24"><div xmlns="http://www.w3.org/1999/xhtml" style="display: table-cell; white-space: nowrap; line-height: 1.5; max-width: 200px; text-align: center;"><span class="nodeLabel"><p>Ping</p></span></div></foreignObject></g></g><g class="node default" id="flowchart-H8-9" transform="translate(1035.1015625, 85)"><rect class="basic label-container" style="" x="-43.34375" y="-27" width="86.6875" height="54"/><g class="label" style="" transform="translate(-13.34375, -12)"><rect/><foreignObject width="26.6875" height="24"><div xmlns="http://www.w3.org/1999/xhtml" style="display: table-cell; white-space: nowrap; line-height: 1.5; max-width: 200px; text-align: center;"><span class="nodeLabel"><p>Pull</p></span></div></foreignObject></g></g><g class="node default" id="flowchart-H2-10" transform="translate(1227.3515625, 85)"><rect class="basic label-container" style="" x="-58.90625" y="-27" width="117.8125" height="54"/><g class="label" style="" transform="translate(-28.90625, -12)"><rect/><foreignObject width="57.8125" height="24"><div xmlns="http://www.w3.org/1999/xhtml" style="display: table-cell; white-space: nowrap; line-height: 1.5; max-width: 200px; text-align: center;"><span class="nodeLabel"><p>Settings</p></span></div></foreignObject></g></g><g class="node default" id="flowchart-H7-11" transform="translate(1586.89453125, 85)"><rect class="basic label-container" style="" x="-48.234375" y="-27" width="96.46875" height="54"/><g class="label" style="" transform="translate(-18.234375, -12)"><rect/><foreignObject width="36.46875" height="24"><div xmlns="http://www.w3.org/1999/xhtml" style="display: table-cell; white-space: nowrap; line-height: 1.5; max-width: 200px; text-align: center;"><span class="nodeLabel"><p>Push</p></span></div></foreignObject></g></g><g class="node default" id="flowchart-S1-12" transform="translate(782.5078125, 289)"><rect class="basic label-container" style="" x="-71.8046875" y="-27" width="143.609375" height="54"/><g class="label" style="" transform="translate(-41.8046875, -12)"><rect/><foreignObject width="83.609375" height="24"><div xmlns="http://www.w3.org/1999/xhtml" style="display: table-cell; white-space: nowrap; line-height: 1.5; max-width: 200px; text-align: center;"><span class="nodeLabel"><p>GetSettings</p></span></div></foreignObject></g></g><g class="node default" id="flowchart-S7-13" transform="translate(1043.90234375, 289)"><rect class="basic label-container" style="" x="-87.359375" y="-27" width="174.71875" height="54"/><g class="label" style="" transform="translate(-57.359375, -12)"><rect/><foreignObject width="114.71875" height="24"><div xmlns="http://www.w3.org/1999/xhtml" style="display: table-cell; white-space: nowrap; line-height: 1.5; max-width: 200px; text-align: center;"><span class="nodeLabel"><p>GetRepositories</p></span></div></foreignObject></g></g><g class="node default" id="flowchart-S2-14" transform="translate(576, 289)"><rect class="basic label-container" style="" x="-84.703125" y="-27" width="169.40625" height="54"/><g class="label" style="" transform="translate(-54.703125, -12)"><rect/><foreignObject width="109.40625" height="24"><div xmlns="http://www.w3.org/1999/xhtml" style="display: table-cell; white-space: nowrap; line-height: 1.5; max-width: 200px; text-align: center;"><span class="nodeLabel"><p>UpdateSettings</p></span></div></foreignObject></g></g><g class="node default" id="flowchart-S5-15" transform="translate(254.140625, 289)"><rect class="basic label-container" style="" x="-58.90625" y="-27" width="117.8125" height="54"/><g class="label" style="" transform="translate(-28.90625, -12)"><rect/><foreignObject width="57.8125" height="24"><div xmlns="http://www.w3.org/1999/xhtml" style="display: table-cell; white-space: nowrap; line-height: 1.5; max-width: 200px; text-align: center;"><span class="nodeLabel"><p>Initialize</p></span></div></foreignObject></g></g><g class="node default" id="flowchart-S6-16" transform="translate(104.1171875, 289)"><rect class="basic label-container" style="" x="-41.1171875" y="-27" width="82.234375" height="54"/><g class="label" style="" transform="translate(-11.1171875, -12)"><rect/><foreignObject width="22.234375" height="24"><div xmlns="http://www.w3.org/1999/xhtml" style="display: table-cell; white-space: nowrap; line-height: 1.5; max-width: 200px; text-align: center;"><span class="nodeLabel"><p>Me</p></span></div></foreignObject></g></g><g class="node default" id="flowchart-S3-17" transform="translate(1586.89453125, 289)"><rect class="basic label-container" style="" x="-48.234375" y="-27" width="96.46875" height="54"/><g class="label" style="" transform="translate(-18.234375, -12)"><rect/><foreignObject width="36.46875" height="24"><div xmlns="http://www.w3.org/1999/xhtml" style="display: table-cell; white-space: nowrap; line-height: 1.5; max-width: 200px; text-align: center;"><span class="nodeLabel"><p>Push</p></span></div></foreignObject></g></g><g class="node default" id="flowchart-S4-18" transform="translate(1309.17578125, 289)"><rect class="basic label-container" style="" x="-43.34375" y="-27" width="86.6875" height="54"/><g class="label" style="" transform="translate(-13.34375, -12)"><rect/><foreignObject width="26.6875" height="24"><div xmlns="http://www.w3.org/1999/xhtml" style="display: table-cell; white-space: nowrap; line-height: 1.5; max-width: 200px; text-align: center;"><span class="nodeLabel"><p>Pull</p></span></div></foreignObject></g></g><g class="node default" id="flowchart-R1-19" transform="translate(156.19140625, 468)"><rect class="basic label-container" style="" x="-85.1328125" y="-27" width="170.265625" height="54"/><g class="label" style="" transform="translate(-55.1328125, -12)"><rect/><foreignObject width="110.265625" height="24"><div xmlns="http://www.w3.org/1999/xhtml" style="display: table-cell; white-space: nowrap; line-height: 1.5; max-width: 200px; text-align: center;"><span class="nodeLabel"><p>UserRepository</p></span></div></foreignObject></g></g><g class="node default" id="flowchart-R2-20" transform="translate(792.5078125, 468)"><rect class="basic label-container" style="" x="-97.1484375" y="-27" width="194.296875" height="54"/><g class="label" style="" transform="translate(-67.1484375, -12)"><rect/><foreignObject width="134.296875" height="24"><div xmlns="http://www.w3.org/1999/xhtml" style="display: table-cell; white-space: nowrap; line-height: 1.5; max-width: 200px; text-align: center;"><span class="nodeLabel"><p>SettingsRepository</p></span></div></foreignObject></g></g><g class="node default" id="flowchart-R3-21" transform="translate(1215.04296875, 468)"><rect class="basic label-container" style="" x="-106.4765625" y="-27" width="212.953125" height="54"/><g class="label" style="" transform="translate(-76.4765625, -12)"><rect/><foreignObject width="152.953125" height="24"><div xmlns="http://www.w3.org/1999/xhtml" style="display: table-cell; white-space: nowrap; line-height: 1.5; max-width: 200px; text-align: center;"><span class="nodeLabel"><p>RepositoryRepository</p></span></div></foreignObject></g></g></g></g></g></svg>